<svg width="55" height="55" viewBox="0 0 55 55" fill="none" xmlns="http://www.w3.org/2000/svg">
<path d="M45.8334 27.5C45.8334 21.6792 43.1063 16.4771 38.8667 13.1313L36.6667 0H18.3334L16.1563 13.1313C11.8938 16.4771 9.16669 21.6563 9.16669 27.5C9.16669 33.3438 11.8938 38.5229 16.1563 41.8688L18.3334 55H36.6667L38.8667 41.8688C41.0394 40.157 42.7954 37.9743 44.0021 35.4854C45.2089 32.9964 45.835 30.2661 45.8334 27.5ZM13.75 27.5C13.75 19.9146 19.9146 13.75 27.5 13.75C35.0854 13.75 41.25 19.9146 41.25 27.5C41.25 35.0854 35.0854 41.25 27.5 41.25C19.9146 41.25 13.75 35.0854 13.75 27.5Z" fill="white"/>
</svg>
